[Header]
FileType HTR
DataType HTRS
FileVersion 1
NumSegments 22
NumFrames 8
DataFrameRate 24
EulerRotationOrder ZYX
CalibrationUnits mm
RotationUnits Degrees
GlobalAxisofGravity Y
BoneLengthAxis Y
ScaleFactor 1.0
[SegmentNames&Hierarchy]
reference	GLOBAL
Hips	reference
Spine	Hips
Spine1	Spine
Neck	Spine1
Head	Neck
LeftShoulder	Spine1
LeftArm	LeftShoulder
LeftForeArm	LeftArm
LeftHand	LeftForeArm
RightShoulder	Spine1
RightArm	RightShoulder
RightForeArm	RightArm
RightHand	RightForeArm
LeftUpLeg	Hips
LeftLeg	LeftUpLeg
LeftFoot	LeftLeg
LeftToeBase	LeftFoot
RightUpLeg	Hips
RightLeg	RightUpLeg
RightFoot	RightLeg
RightToeBase	RightFoot
[BasePosition]
reference	0	0	0	0	0	0	1
Hips	0	0	0	0	0	0	1
Spine	0	0	0	0	-0	90	1
Spine1	0	0	0	0	0	0	1
Neck	0	0	0	-7.352327771	-7.352327771	90	1
Head	0	0	0	0	-0	90	1
LeftShoulder	0	0	0	0	0	0	1
LeftArm	0	0	0	0	0	0	1
LeftForeArm	0	0	0	0	0	0	1
LeftHand	0	0	0	0	0	0	1
RightShoulder	0	0	0	0	-0	180	1
RightArm	0	0	0	0	-0	180	1
RightForeArm	0	0	0	0	-0	180	1
RightHand	0	0	0	0	-0	180	1
LeftUpLeg	0	0	0	0	-0	-90	1
LeftLeg	0	0	0	0	-0	-90	1
LeftFoot	0	0	0	66.57146043	-66.57146043	-90	1
LeftToeBase	0	0	0	0	-90	0	1
RightUpLeg	0	0	0	0	-0	-90	1
RightLeg	0	0	0	0	-0	-90	1
RightFoot	0	0	0	66.57146043	-66.57146043	-90	1
RightToeBase	0	0	0	0	-90	0	1
[reference]
28	0	0	0	0	-0	0	1.0
29	0	0	0	0	-0	0	1.0
30	0	0	0	0	-0	0	1.0
31	0	0	0	0	-0	0	1.0
32	0	0	0	0	-0	0	1.0
33	0	0	0	0	-0	0	1.0
34	0	0	0	0	-0	0	1.0
35	0	0	0	0	-0	0	1.0
[Hips]
28	6.189313412	8.136762619	3.358660936	-2.24582386	-126.7101822	4.630797386	1.0
29	6.030630589	8.100038528	3.245640755	-2.69901371	-128.0401001	5.208158016	1.0
30	5.858674526	8.089154243	3.140287876	-0.5218431354	-127.6847458	3.436913729	1.0
31	5.661230087	8.095586777	3.023855925	0.8256530762	-127.5209503	2.37260437	1.0
32	5.438480854	8.108437538	2.887885571	1.433839679	-128.481842	2.401356936	1.0
33	5.175139904	8.123937607	2.729832172	1.07992661	-130.0458221	3.043592691	1.0
34	4.88601017	8.138324738	2.585065842	0.8233947754	-131.6390839	2.827217102	1.0
35	4.584793091	8.119782448	2.455697536	2.598428249	-132.629837	0.2508420646	1.0
[Spine]
28	0	0.7457100153	0	-3.1909163	7.199538231	-86.41142273	1.0
29	0	0.7457100153	0	-3.012016296	6.743475914	-86.20742798	1.0
30	0	0.7457100153	0	-3.497647524	5.972572803	-87.36265564	1.0
31	0	0.7457100153	0	-3.385464191	6.035270214	-88.01097107	1.0
32	0	0.7457100153	0	-3.279172421	6.555451393	-88.00205231	1.0
33	0	0.7457100153	0	-3.764430761	6.985953331	-88.07870483	1.0
34	0	0.7457100153	0	-3.798155069	6.439153194	-87.78372192	1.0
35	0	0.7457100153	0	-4.733958244	6.122909546	-89.73100281	1.0
[Spine1]
28	0	2.140589952	0	7.929741859	2.318717957	0.6454839706	1.0
29	0	2.140589952	0	8.775999069	2.126454592	1.168791652	1.0
30	0	2.140589952	0	9.576097488	1.864587545	1.154923201	1.0
31	0	2.140589952	0	9.140906334	1.922624707	0.793441534	1.0
32	0	2.140589952	0	8.157184601	2.141725063	0.5008175373	1.0
33	0	2.140589952	0	8.061385155	2.261645317	0.6650078297	1.0
34	0	2.140589952	0	8.378681183	2.209701538	0.5040345788	1.0
35	0	2.140589952	0	9.501059532	2.04921174	-0.6562435627	1.0
[Neck]
28	0	2.32246995	0	-18.48112106	7.523169518	-91.75646973	1.0
29	0	2.32246995	0	-21.97800446	7.346011639	-95.12176514	1.0
30	0	2.32246995	0	-24.29872704	7.355051517	-95.34487915	1.0
31	0	2.32246995	0	-24.89034653	6.847537994	-95.28768921	1.0
32	0	2.32246995	0	-25.69991112	6.993518829	-93.97408295	1.0
33	0	2.32246995	0	-25.27997398	7.273050785	-93.01626587	1.0
34	0	2.32246995	0	-23.86535263	7.369847298	-93.1892395	1.0
35	0	2.32246995	0	-23.33425522	7.892551422	-92.37281799	1.0
[Head]
28	0	1.409579992	0.1818799973	-7.210432529	0.5324680209	-97.78393555	1.0
29	0	1.409579992	0.1818799973	-4.945759773	0.7751247883	-91.16300964	1.0
30	0	1.409579992	0.1818799973	-4.436914444	0.8948774338	-90.69390106	1.0
31	0	1.409579992	0.1818799973	-4.650020123	0.2598685622	-89.3391571	1.0
32	0	1.409579992	0.1818799973	-2.908231258	0.4817296267	-91.74636078	1.0
33	0	1.409579992	0.1818799973	-2.767534733	0.6730707288	-92.46870422	1.0
34	0	1.409579992	0.1818799973	-4.511323929	0.5352756977	-90.41871643	1.0
35	0	1.409579992	0.1818799973	-4.460417747	0.9609862566	-90.51243591	1.0
[LeftShoulder]
28	0.3668199778	1.946700096	-0.02662999928	-7.254686356	-10.39638424	0.03202524781	1.0
29	0.3668199778	1.946700096	-0.02662999928	-7.731497765	-9.467554092	-0.2465914637	1.0
30	0.3668199778	1.946700096	-0.02662999928	-7.705345154	-9.914014816	-1.116831303	1.0
31	0.3668199778	1.946700096	-0.02662999928	-8.792038918	-10.38854694	-0.911016345	1.0
32	0.3668199778	1.946700096	-0.02662999928	-9.098371506	-10.82469368	-1.042874336	1.0
33	0.3668199778	1.946700096	-0.02662999928	-9.194259644	-10.75516701	-0.7711820602	1.0
34	0.3668199778	1.946700096	-0.02662999928	-9.68170166	-10.94630814	-0.7942416072	1.0
35	0.3668199778	1.946700096	-0.02662999928	-10.46112251	-11.32586193	-0.6139628291	1.0
[LeftArm]
28	1.140689969	0	0	14.75517464	27.61177444	-71.72571564	1.0
29	1.140689969	0	0	12.73462772	28.34527588	-71.15325165	1.0
30	1.140689969	0	0	15.98174095	27.16467667	-70.86721802	1.0
31	1.140689969	0	0	20.45292091	26.0293045	-71.03642273	1.0
32	1.140689969	0	0	22.16005135	24.74220085	-71.15133667	1.0
33	1.140689969	0	0	23.82582855	23.08909988	-72.28128052	1.0
34	1.140689969	0	0	25.88666534	21.73279762	-72.97486877	1.0
35	1.140689969	0	0	30.97673225	19.83602715	-72.50791168	1.0
[LeftForeArm]
28	2.749800205	0	0	-7.22004652	-7.110765457	-7.511547089	1.0
29	2.749800205	0	0	-8.395112038	-5.863656521	-7.42156744	1.0
30	2.749800205	0	0	-10.45319843	-4.226556778	-5.673172951	1.0
31	2.749800205	0	0	-10.95384216	-3.017348766	-4.911245346	1.0
32	2.749800205	0	0	-10.05766964	-3.564661741	-4.700665951	1.0
33	2.749800205	0	0	-10.75212288	-5.387818336	-4.160270691	1.0
34	2.749800205	0	0	-12.52162361	-8.537635803	-4.063421249	1.0
35	2.749800205	0	0	-13.0803051	-12.57145882	-4.364807606	1.0
[LeftHand]
28	2.295179844	0	0	-7.56962204	-2.914411068	-4.626176357	1.0
29	2.295179844	0	0	-8.691989899	-2.898139954	-3.303349733	1.0
30	2.295179844	0	0	-10.63166332	-1.817809939	-1.97266376	1.0
31	2.295179844	0	0	-11.08014488	0.3506683111	1.01400125	1.0
32	2.295179844	0	0	-10.17602921	1.481124759	2.164222479	1.0
33	2.295179844	0	0	-10.94487953	0.2607240975	1.341860294	1.0
34	2.295179844	0	0	-12.82816505	-0.9317046404	0.3915100694	1.0
35	2.295179844	0	0	-13.55710602	-2.603345156	-0.2819406092	1.0
[RightShoulder]
28	-0.3601199985	1.946700096	-0.02662999928	-6.576453209	5.15650177	173.0615387	1.0
29	-0.3601199985	1.946700096	-0.02662999928	-6.868731022	5.452185154	173.0942993	1.0
30	-0.3601199985	1.946700096	-0.02662999928	-7.159662724	5.622736931	173.2727661	1.0
31	-0.3601199985	1.946700096	-0.02662999928	-7.003314018	5.687933922	173.5144806	1.0
32	-0.3601199985	1.946700096	-0.02662999928	-6.747395992	5.349832058	173.4151917	1.0
33	-0.3601199985	1.946700096	-0.02662999928	-6.932301521	5.518036366	173.7011108	1.0
34	-0.3601199985	1.946700096	-0.02662999928	-6.641326904	5.556797981	173.6302185	1.0
35	-0.3601199985	1.946700096	-0.02662999928	-6.751005173	5.66787672	173.8327026	1.0
[RightArm]
28	-1.140689969	0	0	70.05021667	11.01120281	-96.93089294	1.0
29	-1.140689969	0	0	69.68321228	12.56239796	-96.95183563	1.0
30	-1.140689969	0	0	68.27731323	12.35577297	-95.78364563	1.0
31	-1.140689969	0	0	67.64735413	10.41124535	-93.86682129	1.0
32	-1.140689969	0	0	68.42063904	8.530235291	-91.89743042	1.0
33	-1.140689969	0	0	67.96161652	6.839628696	-91.6208725	1.0
34	-1.140689969	0	0	66.78855133	6.554148197	-91.98368835	1.0
35	-1.140689969	0	0	64.5447998	6.025331497	-92.89994812	1.0
[RightForeArm]
28	-2.749800205	0	0	2.948812485	41.26674652	172.2957764	1.0
29	-2.749800205	0	0	3.909700871	42.01182938	172.9752197	1.0
30	-2.749800205	0	0	3.567125797	38.76179504	172.8770447	1.0
31	-2.749800205	0	0	0.5282692909	33.02331161	170.9679413	1.0
32	-2.749800205	0	0	-1.528102517	26.13979912	170.4028625	1.0
33	-2.749800205	0	0	-2.048902988	20.46126556	172.3475952	1.0
34	-2.749800205	0	0	-2.151917934	15.69621849	175.1737976	1.0
35	-2.749800205	0	0	-1.495709062	11.7566452	177.1821442	1.0
[RightHand]
28	-2.295179844	0	0	4.864037991	15.22697639	172.6174011	1.0
29	-2.295179844	0	0	5.519604683	15.61244106	172.0572968	1.0
30	-2.295179844	0	0	4.962981224	15.21521568	171.7131958	1.0
31	-2.295179844	0	0	2.131066322	14.10175705	171.3612061	1.0
32	-2.295179844	0	0	-0.28985098	12.49399185	170.9388733	1.0
33	-2.295179844	0	0	-1.466794133	10.28683853	171.1190491	1.0
34	-2.295179844	0	0	-2.054431438	8.486209869	172.3856659	1.0
35	-2.295179844	0	0	-1.519056797	6.941793442	174.8715515	1.0
[LeftUpLeg]
28	0.9094099998	0	0	-17.65472031	-5.028736591	94.11565399	1.0
29	0.9094099998	0	0	-18.66559792	-3.817409515	93.29880524	1.0
30	0.9094099998	0	0	-22.46510315	-4.866919518	91.72355652	1.0
31	0.9094099998	0	0	-25.39787292	-7.150558472	92.59547424	1.0
32	0.9094099998	0	0	-25.6496563	-5.605027676	92.6071701	1.0
33	0.9094099998	0	0	-23.70858192	-2.188889027	90.94007111	1.0
34	0.9094099998	0	0	-21.78027344	-2.420747995	89.11829376	1.0
35	0.9094099998	0	0	-22.4058876	-5.376464844	88.40895081	1.0
[LeftLeg]
28	0	-4.498080254	0	5.572926521	0.5636427402	87.06478882	1.0
29	0	-4.498080254	0	10.01775742	-2.587364197	87.47291565	1.0
30	0	-4.498080254	0	20.13066483	-11.0365057	84.28520203	1.0
31	0	-4.498080254	0	29.50079727	-12.23206329	78.73400879	1.0
32	0	-4.498080254	0	34.42233658	-13.49664974	75.68243408	1.0
33	0	-4.498080254	0	35.20767593	-12.08295345	78.52911377	1.0
34	0	-4.498080254	0	37.85574341	-10.79592896	80.94958496	1.0
35	0	-4.498080254	0	45.03514862	-16.13080788	70.08003998	1.0
[LeftFoot]
28	0	-3.729400158	0	-105.66008	97.21304321	-59.98616791	1.0
29	0	-3.729400158	0	-101.6516266	113.8209305	-51.60429382	1.0
30	0	-3.729400158	0	-81.49377441	116.3710022	-26.39328003	1.0
31	0	-3.729400158	0	-74.01413727	117.6462708	-17.67653275	1.0
32	0	-3.729400158	0	-68.78091431	118.9088593	-10.70837212	1.0
33	0	-3.729400158	0	-75.71474457	116.3452759	-14.91679382	1.0
34	0	-3.729400158	0	-82.60855103	116.0069046	-19.09092522	1.0
35	0	-3.729400158	0	-68.27784729	125.5826263	-0.7298614979	1.0
[LeftToeBase]
28	0	-0.5911099911	1.364109993	0	0	0	1.0
29	0	-0.5911099911	1.364109993	0	0	0	1.0
30	0	-0.5911099911	1.364109993	0	0	0	1.0
31	0	-0.5911099911	1.364109993	0	0	0	1.0
32	0	-0.5911099911	1.364109993	0	0	0	1.0
33	0	-0.5911099911	1.364109993	0	0	0	1.0
34	0	-0.5911099911	1.364109993	0	0	0	1.0
35	0	-0.5911099911	1.364109993	0	0	0	1.0
[RightUpLeg]
28	-0.9094099998	0	0	11.19605446	-7.62112999	95.16162109	1.0
29	-0.9094099998	0	0	11.95852852	-8.72810173	94.5246048	1.0
30	-0.9094099998	0	0	11.83983994	-9.013225555	93.42402649	1.0
31	-0.9094099998	0	0	11.90371323	-10.26471138	92.74138641	1.0
32	-0.9094099998	0	0	11.67762375	-12.14134598	91.46435547	1.0
33	-0.9094099998	0	0	10.70388222	-14.0652523	90.02138519	1.0
34	-0.9094099998	0	0	8.750183105	-17.42313385	88.37471771	1.0
35	-0.9094099998	0	0	1.783132792	-16.62403488	86.97658539	1.0
[RightLeg]
28	0	-4.498080254	0	6.627616882	0.2282459736	92.40734863	1.0
29	0	-4.498080254	0	8.496905327	3.675517559	93.20366669	1.0
30	0	-4.498080254	0	9.993169785	2.295396328	92.13066864	1.0
31	0	-4.498080254	0	11.73706627	-2.962135553	89.12535095	1.0
32	0	-4.498080254	0	14.89190197	-2.327698469	88.39785004	1.0
33	0	-4.498080254	0	20.8120575	0.1487052888	87.32646942	1.0
34	0	-4.498080254	0	29.79493904	-2.452813625	80.12322998	1.0
35	0	-4.498080254	0	43.82633972	-11.37456131	61.04802704	1.0
[RightFoot]
28	0	-3.729400158	0	29.87252426	69.86360931	92.79209137	1.0
29	0	-3.729400158	0	25.06611252	69.25415802	90.3188858	1.0
30	0	-3.729400158	0	32.98731613	68.48693085	98.04558563	1.0
31	0	-3.729400158	0	57.23773956	66.16914368	120.7120056	1.0
32	0	-3.729400158	0	69.76915741	63.1196785	130.1513062	1.0
33	0	-3.729400158	0	78.43590546	59.50546265	136.8943634	1.0
34	0	-3.729400158	0	98.94811249	48.64864349	154.4490662	1.0
35	0	-3.729400158	0	127.9559631	22.55739021	169.2133331	1.0
[RightToeBase]
28	0	-0.5911099911	1.364109993	0	0	0	1.0
29	0	-0.5911099911	1.364109993	0	0	0	1.0
30	0	-0.5911099911	1.364109993	0	0	0	1.0
31	0	-0.5911099911	1.364109993	0	0	0	1.0
32	0	-0.5911099911	1.364109993	0	0	0	1.0
33	0	-0.5911099911	1.364109993	0	0	0	1.0
34	0	-0.5911099911	1.364109993	0	0	0	1.0
35	0	-0.5911099911	1.364109993	0	0	0	1.0
[EndOfFile]
